<?xml version="1.0" encoding="utf-8"?>
<!-- Generator: Adobe Illustrator 27.5.0, SVG Export Plug-In . SVG Version: 6.00 Build 0)  -->
<svg version="1.1" id="katman_1" xmlns="http://www.w3.org/2000/svg" xmlns:xlink="http://www.w3.org/1999/xlink" x="0px" y="0px"
	 viewBox="0 0 841.89 595.28" style="enable-background:new 0 0 841.89 595.28;" xml:space="preserve">
<style type="text/css">
	.st0{fill-rule:evenodd;clip-rule:evenodd;fill:#010202;}
	.st1{fill:#FFFFFF;}
	.st2{fill-rule:evenodd;clip-rule:evenodd;fill:#008C5C;}
	.st3{fill-rule:evenodd;clip-rule:evenodd;fill:#FFFFFF;}
	.st4{fill-rule:evenodd;clip-rule:evenodd;fill:#E62B3A;}
</style>
<g>
	<polygon class="st0" points="140.55,378.99 140.55,54.92 701.51,54.92 701.51,378.99 420.84,539.91 	"/>
	<polygon class="st1" points="155.14,69.14 154.77,69.14 154.77,370.76 420.84,523.82 420.84,523.82 421.21,523.82 686.91,371.13 
		686.91,370.76 686.91,69.51 	"/>
	<polygon class="st2" points="672.69,239.41 672.69,83.36 168.99,83.36 168.99,246.89 672.69,246.89 	"/>
	<g>
		<g>
			<polygon class="st3" points="292.11,227.43 292.11,129.01 344.5,129.01 344.5,102.82 203.04,102.82 203.04,129.01 255.06,129.01 
				255.06,227.43 292.11,227.43 			"/>
		</g>
	</g>
	<g>
		<g>
			<path class="st3" d="M632.65,225.19c-28.44,5.61-65.11,7.11-91.31-3.37c-22.45-8.61-36.3-28.82-39.29-48.65
				c-2.99-24.32,7.48-45.66,30.31-59.88c26.57-16.09,68.48-15.72,97.3-4.49l0,0v27.32c-21.7-8.61-54.64-16.09-75.59-2.25
				c-14.97,9.73-19.83,25.45-15.72,41.16c2.99,12.35,15.34,23.58,29.19,27.69c9.73,2.62,21.7,3.37,32.56,2.25l0,0v-20.21h-14.22
				v-24.32h47.15L632.65,225.19z"/>
		</g>
	</g>
	<g>
		<g>
			<path class="st3" d="M380.05,203.11l-12.35,24.32h-37.8l61.37-124.62h42.29l62.5,124.62h-37.8l-13.1-24.32H380.05L380.05,203.11
				L380.05,203.11z M412.61,133.5l-22.45,43.78h43.41L412.61,133.5z"/>
		</g>
	</g>
	<polygon class="st4" points="168.61,362.9 420.84,508.1 673.44,362.9 673.44,261.11 168.24,261.11 	"/>
	<path class="st1" d="M462,458.33V280.57c0-0.37-0.37-0.75-0.75-0.75h-17.96c-0.37,0-0.75,0.37-0.75,0.75v166.9l-20.96,11.6
		l-20.96-11.6v-166.9c0-0.37-0.37-0.75-0.75-0.75h-17.96c-0.37,0-0.37,0-0.75,0.37c0,0-0.37,0.37-0.37,0.75V458.7
		c0,0.37,0,0.75,0.37,0.75l40.04,23.2c0.37,0,0.75,0,0.75,0l40.04-23.2C461.63,459.07,462,458.7,462,458.33z"/>
	<path class="st1" d="M350.49,441.86c0.37,0,0.75,0,0.75,0c0.37,0,0.37-0.37,0.37-0.75v-19.09c0-0.37,0-0.75-0.37-0.75l-38.54-20.96
		v-46.78l34.43,8.98c0.37,0,0.75-0.37,0.75-1.12v-19.09c0-0.37-0.37-0.75-0.75-0.75l-34.43-7.48v-37.05h38.17
		c0.37,0,0.75-0.37,0.75-0.75v-15.72c0-0.37-0.37-0.75-0.75-0.75h-56.51c-0.37,0-0.75,0.37-0.75,0.75v128.36
		c0,0.37,0,0.75,0.37,0.75L350.49,441.86z"/>
	<path class="st1" d="M552.19,406.31V389.1c0-0.37,0-0.75-0.37-0.75s-0.75,0-0.75,0l-37.8,20.58v-51.27l35.18-8.98
		c0.37,0,0.75-0.37,0.75-0.75v-16.84c0-0.37,0-0.37-0.37-0.75c0,0-0.37-0.37-0.75-0.37l-34.8,7.48v-40.42h38.17
		c0.37,0,0.75-0.37,0.75-0.75v-15.72c0-0.37-0.37-0.75-0.75-0.75h-56.51c-0.37,0-0.75,0.37-0.75,0.75v158.3c0,0.37,0,0.75,0.37,0.75
		s0.75,0,0.75,0l56.51-32.56C552.19,407.06,552.19,406.68,552.19,406.31z"/>
	<path class="st1" d="M246.08,381.99l15.72,8.98c0.37,0,0.75,0,0.75,0c0.37,0,0.37-0.37,0.37-0.75V280.57
		c0-0.37-0.37-0.75-0.75-0.75h-15.72c-0.37,0-0.75,0.37-0.75,0.75v38.54l-37.42-8.23v-30.31c0-0.37-0.37-0.75-0.75-0.75h-15.34
		c-0.37,0-0.37,0-0.75,0.37c0,0-0.37,0.37-0.37,0.75v69.23c0,0.37,0,0.75,0.37,0.75l15.34,8.61c0.37,0,0.75,0,0.75,0
		c0.37,0,0.37-0.37,0.37-0.75v-31.81l37.42,9.73v44.91C245.7,381.61,245.7,381.61,246.08,381.99z"/>
	<path class="st1" d="M581.76,389.47c0.37,0,0.75,0,0.75,0l16.09-8.98l0,0v-44.91l9.36-2.62l27.69,24.7
		c0.37,0.37,0.75,0.37,1.12,0.37l14.22-8.23c0.37,0,0.37-0.37,0.37-0.75s0-0.37,0-0.75l-24.32-20.58l17.21-4.49
		c5.61-1.5,6.74-4.12,6.36-9.73v-28.07c-0.75-4.12-3.74-6.36-7.86-6.36c-0.37,0-0.37,0-0.75,0l-59.88,0.37
		c-0.37,0-0.75,0.75-0.75,1.12v108.15C581.38,389.1,581.38,389.47,581.76,389.47z M598.97,297.04h32.56c1.5,0,2.62,1.12,2.62,2.62
		v8.23c0,1.87-0.37,2.99-2.99,3.37l-32.56,7.11v-21.33H598.97z"/>
</g>
</svg>
